/* XPM */
static char *board5[] = {
/* columns rows colors chars-per-pixel */
"50 50 2 1 ",
"  c black",
". c white",
/* pixels */
"          ..........          ..........          ",
"          ..........          ..........          ",
"          ..........          ..........          ",
"          ..........          ..........          ",
"          ..........          ..........          ",
"          ..........          ..........          ",
"          ..........          ..........          ",
"          ..........          ..........          ",
"          ..........          ..........          ",
"          ..........          ..........          ",
"..........          ..........          ..........",
"..........          ..........          ..........",
"..........          ..........          ..........",
"..........          ..........          ..........",
"..........          ..........          ..........",
"..........          ..........          ..........",
"..........          ..........          ..........",
"..........          ..........          ..........",
"..........          ..........          ..........",
"..........          ..........          ..........",
"          ..........          ..........          ",
"          ..........          ..........          ",
"          ..........          ..........          ",
"          ..........          ..........          ",
"          ..........          ..........          ",
"          ..........          ..........          ",
"          ..........          ..........          ",
"          ..........          ..........          ",
"          ..........          ..........          ",
"          ..........          ..........          ",
"..........          ..........          ..........",
"..........          ..........          ..........",
"..........          ..........          ..........",
"..........          ..........          ..........",
"..........          ..........          ..........",
"..........          ..........          ..........",
"..........          ..........          ..........",
"..........          ..........          ..........",
"..........          ..........          ..........",
"..........          ..........          ..........",
"          ..........          ..........          ",
"          ..........          ..........          ",
"          ..........          ..........          ",
"          ..........          ..........          ",
"          ..........          ..........          ",
"          ..........          ..........          ",
"          ..........          ..........          ",
"          ..........          ..........          ",
"          ..........          ..........          ",
"          ..........          ..........          "
};
