/* XPM */
static char *board4_4[] = {
/* columns rows colors chars-per-pixel */
"20 20 2 1 ",
"  c red",
". c green",
/* pixels */
"          ..........",
"          ..........",
"          ..........",
"          ..........",
"          ..........",
"          ..........",
"          ..........",
"          ..........",
"          ..........",
"          ..........",
"..........          ",
"..........          ",
"..........          ",
"..........          ",
"..........          ",
"..........          ",
"..........          ",
"..........          ",
"..........          ",
"..........          "
};
