/* XPM */
static char *boardgood[] = {
/* columns rows colors chars-per-pixel */
"10 10 2 1 ",
"  c green",
". c red",
/* pixels */
"  ..  ..  ",
"  ..  ..  ",
"..  ..  ..",
"..  ..  ..",
"  ..  ..  ",
"  ..  ..  ",
"..  ..  ..",
"..  ..  ..",
"  ..  ..  ",
"  ..  ..  "
};
